<svg id="svg" xmlns="http://www.w3.org/2000/svg"
  width='5px'
  height='5px'
  viewBox="0, 0, 400,400">
  <g id="svgg">
    <path id="path0"
      d="M188.374 3.688 C 76.090 9.420,-6.577 108.693,5.593 223.186 C 16.016 321.236,95.520 395.115,193.174 397.495 C 255.598 399.017,304.188 376.987,350.460 326.187 L 351.943 324.558 351.440 324.071 C 350.678 323.334,316.677 291.464,316.361 291.191 C 316.089 290.955,316.032 291.007,310.260 296.784 C 278.103 328.965,245.450 344.938,207.750 346.928 C 131.923 350.931,68.817 292.711,62.730 213.136 C 55.252 115.378,129.883 40.302,219.886 55.044 C 250.675 60.087,276.147 74.662,305.681 104.137 C 309.791 108.238,311.710 110.068,311.823 109.993 C 312.147 109.780,348.900 70.787,348.900 70.657 C 348.900 70.066,336.401 57.844,330.441 52.605 C 295.330 21.750,258.953 6.898,210.903 3.799 C 208.053 3.616,191.405 3.533,188.374 3.688 M201.511 89.021 C 146.357 90.350,101.361 132.823,95.769 188.834 C 89.222 254.398,137.775 310.138,202.430 311.286 C 232.217 311.815,256.457 302.772,278.686 282.839 C 282.520 279.402,291.342 270.367,291.157 270.067 C 291.101 269.977,273.641 253.561,271.415 251.507 L 270.975 251.100 269.051 253.085 C 249.704 273.039,228.953 282.823,205.977 282.823 C 160.253 282.823,125.407 243.643,127.934 195.074 C 130.520 145.397,170.014 110.880,216.094 118.024 C 233.525 120.727,248.177 128.994,264.822 145.518 C 268.352 149.022,268.574 149.218,268.780 149.000 C 268.899 148.872,273.616 143.874,279.261 137.892 C 284.905 131.910,289.524 126.956,289.524 126.882 C 289.524 126.808,288.297 125.504,286.798 123.984 C 265.505 102.396,243.209 91.677,214.845 89.393 C 212.342 89.191,205.155 88.914,203.678 88.962 C 203.245 88.977,202.269 89.003,201.511 89.021 M206.700 159.611 C 180.448 162.235,162.327 186.501,167.367 212.282 C 170.874 230.217,185.266 244.250,203.271 247.290 C 234.044 252.485,260.268 225.383,254.120 194.739 C 250.693 177.660,236.965 163.883,219.901 160.397 C 216.034 159.607,210.211 159.261,206.700 159.611 "
      stroke="none"
      fill="#fff"
      fillRule="evenodd">
    </path>
  </g>
</svg>